<svg width="263" height="194" viewBox="0 0 263 194" fill="none" xmlns="http://www.w3.org/2000/svg">
<rect x="0.5" y="0.5" width="262" height="193" fill="#B3B3B3" stroke="black"/>
<path d="M46.0859 128.562V157H40.7148V128.562H46.0859ZM57.5508 140.848V145.086H44.6797V140.848H57.5508ZM59.0547 128.562V132.801H44.6797V128.562H59.0547ZM74.4648 151.98V135.867H79.6602V157H74.7773L74.4648 151.98ZM75.1289 147.605L76.7305 147.566C76.7305 148.986 76.5742 150.294 76.2617 151.492C75.9492 152.69 75.4609 153.732 74.7969 154.617C74.1458 155.49 73.319 156.173 72.3164 156.668C71.3138 157.15 70.1289 157.391 68.7617 157.391C67.7201 157.391 66.7695 157.247 65.9102 156.961C65.0508 156.661 64.3086 156.199 63.6836 155.574C63.0716 154.936 62.5964 154.122 62.2578 153.133C61.9193 152.13 61.75 150.926 61.75 149.52V135.867H66.9062V149.559C66.9062 150.262 66.9844 150.848 67.1406 151.316C67.3099 151.785 67.5378 152.169 67.8242 152.469C68.1237 152.755 68.4688 152.964 68.8594 153.094C69.263 153.211 69.6927 153.27 70.1484 153.27C71.3984 153.27 72.3815 153.022 73.0977 152.527C73.8268 152.02 74.3477 151.342 74.6602 150.496C74.9727 149.637 75.1289 148.673 75.1289 147.605ZM89.2891 140.379V157H84.1328V135.867H88.9766L89.2891 140.379ZM88.4688 145.672H86.9453C86.9583 144.135 87.1667 142.742 87.5703 141.492C87.974 140.242 88.5404 139.168 89.2695 138.27C90.0117 137.371 90.8906 136.681 91.9062 136.199C92.9219 135.717 94.0547 135.477 95.3047 135.477C96.3203 135.477 97.2383 135.62 98.0586 135.906C98.8789 136.193 99.582 136.648 100.168 137.273C100.767 137.898 101.223 138.719 101.535 139.734C101.861 140.737 102.023 141.974 102.023 143.445V157H96.8281V143.406C96.8281 142.443 96.6849 141.681 96.3984 141.121C96.125 140.561 95.7214 140.164 95.1875 139.93C94.6667 139.695 94.0221 139.578 93.2539 139.578C92.4596 139.578 91.763 139.741 91.1641 140.066C90.5781 140.379 90.0833 140.815 89.6797 141.375C89.2891 141.935 88.9896 142.579 88.7812 143.309C88.5729 144.038 88.4688 144.826 88.4688 145.672ZM119.25 152.508V127H124.445V157H119.758L119.25 152.508ZM105.676 146.688V146.277C105.676 144.663 105.858 143.198 106.223 141.883C106.6 140.555 107.147 139.415 107.863 138.465C108.579 137.514 109.445 136.779 110.461 136.258C111.49 135.737 112.655 135.477 113.957 135.477C115.22 135.477 116.32 135.73 117.258 136.238C118.208 136.746 119.016 137.469 119.68 138.406C120.357 139.344 120.897 140.457 121.301 141.746C121.704 143.022 121.997 144.428 122.18 145.965V147.078C121.997 148.576 121.704 149.949 121.301 151.199C120.897 152.449 120.357 153.543 119.68 154.48C119.016 155.405 118.208 156.121 117.258 156.629C116.307 157.137 115.194 157.391 113.918 157.391C112.629 157.391 111.47 157.124 110.441 156.59C109.426 156.056 108.56 155.307 107.844 154.344C107.141 153.38 106.6 152.247 106.223 150.945C105.858 149.643 105.676 148.224 105.676 146.688ZM110.852 146.277V146.688C110.852 147.599 110.93 148.452 111.086 149.246C111.242 150.04 111.496 150.743 111.848 151.355C112.199 151.954 112.648 152.423 113.195 152.762C113.755 153.1 114.432 153.27 115.227 153.27C116.242 153.27 117.076 153.048 117.727 152.605C118.391 152.15 118.905 151.531 119.27 150.75C119.634 149.956 119.868 149.064 119.973 148.074V145.008C119.921 144.227 119.784 143.504 119.562 142.84C119.354 142.176 119.055 141.603 118.664 141.121C118.286 140.639 117.818 140.262 117.258 139.988C116.698 139.715 116.034 139.578 115.266 139.578C114.471 139.578 113.794 139.754 113.234 140.105C112.674 140.444 112.219 140.919 111.867 141.531C111.516 142.143 111.255 142.853 111.086 143.66C110.93 144.467 110.852 145.34 110.852 146.277ZM134.27 140.184V157H129.113V135.867H133.996L134.27 140.184ZM140.695 135.73L140.617 140.535C140.331 140.483 140.005 140.444 139.641 140.418C139.289 140.392 138.957 140.379 138.645 140.379C137.85 140.379 137.154 140.49 136.555 140.711C135.956 140.919 135.454 141.225 135.051 141.629C134.66 142.033 134.361 142.527 134.152 143.113C133.944 143.686 133.827 144.337 133.801 145.066L132.688 144.93C132.688 143.589 132.824 142.345 133.098 141.199C133.371 140.053 133.768 139.051 134.289 138.191C134.81 137.332 135.461 136.668 136.242 136.199C137.036 135.717 137.948 135.477 138.977 135.477C139.263 135.477 139.569 135.503 139.895 135.555C140.233 135.594 140.5 135.652 140.695 135.73ZM154.504 152.508V142.762C154.504 142.046 154.38 141.427 154.133 140.906C153.885 140.385 153.508 139.982 153 139.695C152.492 139.409 151.848 139.266 151.066 139.266C150.376 139.266 149.771 139.383 149.25 139.617C148.742 139.852 148.352 140.184 148.078 140.613C147.805 141.03 147.668 141.512 147.668 142.059H142.492C142.492 141.186 142.701 140.359 143.117 139.578C143.534 138.784 144.126 138.081 144.895 137.469C145.676 136.844 146.607 136.355 147.688 136.004C148.781 135.652 150.005 135.477 151.359 135.477C152.961 135.477 154.387 135.75 155.637 136.297C156.9 136.831 157.889 137.638 158.605 138.719C159.335 139.799 159.699 141.16 159.699 142.801V152.02C159.699 153.074 159.764 153.979 159.895 154.734C160.038 155.477 160.246 156.121 160.52 156.668V157H155.266C155.018 156.466 154.829 155.789 154.699 154.969C154.569 154.135 154.504 153.315 154.504 152.508ZM155.227 144.129L155.266 147.195H152.004C151.197 147.195 150.487 147.28 149.875 147.449C149.263 147.605 148.762 147.84 148.371 148.152C147.98 148.452 147.688 148.816 147.492 149.246C147.297 149.663 147.199 150.138 147.199 150.672C147.199 151.193 147.316 151.661 147.551 152.078C147.798 152.495 148.15 152.827 148.605 153.074C149.074 153.309 149.621 153.426 150.246 153.426C151.158 153.426 151.952 153.243 152.629 152.879C153.306 152.501 153.833 152.046 154.211 151.512C154.589 150.978 154.79 150.47 154.816 149.988L156.301 152.215C156.118 152.749 155.845 153.315 155.48 153.914C155.116 154.513 154.647 155.073 154.074 155.594C153.501 156.115 152.811 156.544 152.004 156.883C151.197 157.221 150.259 157.391 149.191 157.391C147.824 157.391 146.6 157.117 145.52 156.57C144.439 156.023 143.586 155.275 142.961 154.324C142.336 153.374 142.023 152.293 142.023 151.082C142.023 149.962 142.232 148.973 142.648 148.113C143.065 147.254 143.684 146.531 144.504 145.945C145.324 145.346 146.34 144.897 147.551 144.598C148.775 144.285 150.174 144.129 151.75 144.129H155.227ZM169.816 135.867V157H164.641V135.867H169.816ZM164.289 130.34C164.289 129.572 164.549 128.934 165.07 128.426C165.604 127.918 166.32 127.664 167.219 127.664C168.117 127.664 168.827 127.918 169.348 128.426C169.882 128.934 170.148 129.572 170.148 130.34C170.148 131.095 169.882 131.727 169.348 132.234C168.827 132.742 168.117 132.996 167.219 132.996C166.32 132.996 165.604 132.742 165.07 132.234C164.549 131.727 164.289 131.095 164.289 130.34ZM186.359 151.219C186.359 150.776 186.242 150.379 186.008 150.027C185.773 149.676 185.331 149.357 184.68 149.07C184.042 148.771 183.104 148.491 181.867 148.23C180.773 147.996 179.764 147.703 178.84 147.352C177.915 147 177.121 146.577 176.457 146.082C175.793 145.574 175.272 144.982 174.895 144.305C174.53 143.615 174.348 142.82 174.348 141.922C174.348 141.049 174.536 140.229 174.914 139.461C175.292 138.68 175.839 137.996 176.555 137.41C177.271 136.811 178.143 136.342 179.172 136.004C180.201 135.652 181.359 135.477 182.648 135.477C184.445 135.477 185.988 135.77 187.277 136.355C188.579 136.941 189.576 137.749 190.266 138.777C190.956 139.793 191.301 140.939 191.301 142.215H186.145C186.145 141.655 186.014 141.147 185.754 140.691C185.507 140.236 185.122 139.871 184.602 139.598C184.081 139.311 183.423 139.168 182.629 139.168C181.913 139.168 181.307 139.285 180.812 139.52C180.331 139.754 179.966 140.06 179.719 140.438C179.471 140.815 179.348 141.232 179.348 141.688C179.348 142.026 179.413 142.332 179.543 142.605C179.686 142.866 179.914 143.107 180.227 143.328C180.539 143.549 180.962 143.751 181.496 143.934C182.043 144.116 182.714 144.292 183.508 144.461C185.083 144.773 186.457 145.19 187.629 145.711C188.814 146.219 189.738 146.896 190.402 147.742C191.066 148.589 191.398 149.669 191.398 150.984C191.398 151.922 191.197 152.781 190.793 153.562C190.389 154.331 189.803 155.001 189.035 155.574C188.267 156.147 187.349 156.596 186.281 156.922C185.214 157.234 184.009 157.391 182.668 157.391C180.728 157.391 179.087 157.046 177.746 156.355C176.405 155.652 175.389 154.767 174.699 153.699C174.009 152.618 173.664 151.499 173.664 150.34H178.605C178.645 151.16 178.866 151.818 179.27 152.312C179.673 152.807 180.181 153.165 180.793 153.387C181.418 153.595 182.076 153.699 182.766 153.699C183.547 153.699 184.204 153.595 184.738 153.387C185.272 153.165 185.676 152.872 185.949 152.508C186.223 152.13 186.359 151.701 186.359 151.219ZM200.793 135.867V157H195.617V135.867H200.793ZM195.266 130.34C195.266 129.572 195.526 128.934 196.047 128.426C196.581 127.918 197.297 127.664 198.195 127.664C199.094 127.664 199.803 127.918 200.324 128.426C200.858 128.934 201.125 129.572 201.125 130.34C201.125 131.095 200.858 131.727 200.324 132.234C199.803 132.742 199.094 132.996 198.195 132.996C197.297 132.996 196.581 132.742 196.047 132.234C195.526 131.727 195.266 131.095 195.266 130.34ZM210.773 140.379V157H205.617V135.867H210.461L210.773 140.379ZM209.953 145.672H208.43C208.443 144.135 208.651 142.742 209.055 141.492C209.458 140.242 210.025 139.168 210.754 138.27C211.496 137.371 212.375 136.681 213.391 136.199C214.406 135.717 215.539 135.477 216.789 135.477C217.805 135.477 218.723 135.62 219.543 135.906C220.363 136.193 221.066 136.648 221.652 137.273C222.251 137.898 222.707 138.719 223.02 139.734C223.345 140.737 223.508 141.974 223.508 143.445V157H218.312V143.406C218.312 142.443 218.169 141.681 217.883 141.121C217.609 140.561 217.206 140.164 216.672 139.93C216.151 139.695 215.507 139.578 214.738 139.578C213.944 139.578 213.247 139.741 212.648 140.066C212.062 140.379 211.568 140.815 211.164 141.375C210.773 141.935 210.474 142.579 210.266 143.309C210.057 144.038 209.953 144.826 209.953 145.672ZM241.496 135.867H246.184V156.355C246.184 158.27 245.767 159.891 244.934 161.219C244.113 162.56 242.961 163.576 241.477 164.266C239.992 164.969 238.267 165.32 236.301 165.32C235.454 165.32 234.536 165.203 233.547 164.969C232.57 164.734 231.626 164.363 230.715 163.855C229.816 163.361 229.068 162.716 228.469 161.922L230.793 158.875C231.496 159.695 232.29 160.314 233.176 160.73C234.061 161.16 235.018 161.375 236.047 161.375C237.089 161.375 237.974 161.18 238.703 160.789C239.445 160.411 240.012 159.852 240.402 159.109C240.806 158.38 241.008 157.482 241.008 156.414V140.691L241.496 135.867ZM227.219 146.688V146.277C227.219 144.663 227.414 143.198 227.805 141.883C228.195 140.555 228.755 139.415 229.484 138.465C230.227 137.514 231.118 136.779 232.16 136.258C233.215 135.737 234.4 135.477 235.715 135.477C237.108 135.477 238.28 135.73 239.23 136.238C240.194 136.746 240.988 137.469 241.613 138.406C242.251 139.344 242.746 140.457 243.098 141.746C243.462 143.022 243.742 144.428 243.938 145.965V147.078C243.755 148.576 243.462 149.949 243.059 151.199C242.668 152.449 242.147 153.543 241.496 154.48C240.845 155.405 240.038 156.121 239.074 156.629C238.111 157.137 236.978 157.391 235.676 157.391C234.374 157.391 233.202 157.124 232.16 156.59C231.118 156.056 230.227 155.307 229.484 154.344C228.755 153.38 228.195 152.247 227.805 150.945C227.414 149.643 227.219 148.224 227.219 146.688ZM232.375 146.277V146.688C232.375 147.599 232.466 148.452 232.648 149.246C232.831 150.04 233.111 150.743 233.488 151.355C233.866 151.954 234.341 152.423 234.914 152.762C235.487 153.1 236.171 153.27 236.965 153.27C238.033 153.27 238.905 153.048 239.582 152.605C240.272 152.15 240.793 151.531 241.145 150.75C241.509 149.956 241.743 149.064 241.848 148.074V145.008C241.783 144.227 241.639 143.504 241.418 142.84C241.21 142.176 240.917 141.603 240.539 141.121C240.161 140.639 239.68 140.262 239.094 139.988C238.508 139.715 237.811 139.578 237.004 139.578C236.223 139.578 235.539 139.754 234.953 140.105C234.367 140.444 233.885 140.919 233.508 141.531C233.13 142.143 232.844 142.853 232.648 143.66C232.466 144.467 232.375 145.34 232.375 146.277Z" fill="white"/>
<path d="M123.391 35.0469V42.1562H116.201C114.494 42.1562 113.12 43.5146 113.12 45.2031V51.2969C113.12 52.9854 114.494 54.3438 116.201 54.3438H123.391V61.4531C123.391 63.1416 124.764 64.5 126.472 64.5H132.634C134.342 64.5 135.716 63.1416 135.716 61.4531V54.3438H142.905C144.613 54.3438 145.986 52.9854 145.986 51.2969V45.2031C145.986 43.5146 144.613 42.1562 142.905 42.1562H135.716V35.0469C135.716 33.3584 134.342 32 132.634 32H126.472C124.764 32 123.391 33.3584 123.391 35.0469ZM166.489 81.791C168.775 80.1279 169.262 76.9541 167.581 74.6943C165.899 72.4346 162.689 71.9521 160.404 73.6152L145.036 84.8125H129.553C128.423 84.8125 127.499 83.8984 127.499 82.7812C127.499 81.6641 128.423 80.75 129.553 80.75H131.607H139.824C142.096 80.75 143.932 78.9346 143.932 76.6875C143.932 74.4404 142.096 72.625 139.824 72.625H131.607H129.553H119.501C115.765 72.625 112.144 73.8818 109.23 76.1797L103.465 80.75H98.7409C96.4685 80.75 94.6326 82.5654 94.6326 84.8125V92.9375C94.6326 95.1846 96.4685 97 98.7409 97H119.282H139.888C143.611 97 147.245 95.8193 150.249 93.6357L166.502 81.791H166.489ZM119.372 80.75H119.488C119.449 80.75 119.411 80.75 119.372 80.75Z" fill="white"/>
</svg>
