<svg width="263" height="194" viewBox="0 0 263 194" fill="none" xmlns="http://www.w3.org/2000/svg">
<rect x="0.5" y="0.5" width="262" height="193" fill="#B3B3B3" stroke="black"/>
<path d="M57.8594 151.434L64.9492 128.562H70.9062L60.8672 157H56.9023L57.8594 151.434ZM51.3164 128.562L58.3672 151.434L59.3828 157H55.3789L45.3789 128.562H51.3164ZM71.6289 146.648V146.238C71.6289 144.689 71.8503 143.263 72.293 141.961C72.7357 140.646 73.3802 139.507 74.2266 138.543C75.0729 137.579 76.1081 136.831 77.332 136.297C78.556 135.75 79.9492 135.477 81.5117 135.477C83.1003 135.477 84.5065 135.75 85.7305 136.297C86.9674 136.831 88.0091 137.579 88.8555 138.543C89.7018 139.507 90.3464 140.646 90.7891 141.961C91.2318 143.263 91.4531 144.689 91.4531 146.238V146.648C91.4531 148.185 91.2318 149.611 90.7891 150.926C90.3464 152.228 89.7018 153.367 88.8555 154.344C88.0091 155.307 86.974 156.056 85.75 156.59C84.526 157.124 83.1263 157.391 81.5508 157.391C79.9883 157.391 78.5885 157.124 77.3516 156.59C76.1146 156.056 75.0729 155.307 74.2266 154.344C73.3802 153.367 72.7357 152.228 72.293 150.926C71.8503 149.611 71.6289 148.185 71.6289 146.648ZM76.7852 146.238V146.648C76.7852 147.573 76.8763 148.439 77.0586 149.246C77.2409 150.053 77.5208 150.763 77.8984 151.375C78.276 151.987 78.7643 152.469 79.3633 152.82C79.9753 153.159 80.7044 153.328 81.5508 153.328C82.3841 153.328 83.1003 153.159 83.6992 152.82C84.2982 152.469 84.7865 151.987 85.1641 151.375C85.5547 150.763 85.8411 150.053 86.0234 149.246C86.2057 148.439 86.2969 147.573 86.2969 146.648V146.238C86.2969 145.327 86.2057 144.474 86.0234 143.68C85.8411 142.872 85.5547 142.163 85.1641 141.551C84.7865 140.926 84.2917 140.438 83.6797 140.086C83.0807 139.721 82.3581 139.539 81.5117 139.539C80.6784 139.539 79.9622 139.721 79.3633 140.086C78.7643 140.438 78.276 140.926 77.8984 141.551C77.5208 142.163 77.2409 142.872 77.0586 143.68C76.8763 144.474 76.7852 145.327 76.7852 146.238ZM100.672 127V157H95.4961V127H100.672ZM118.172 151.98V135.867H123.367V157H118.484L118.172 151.98ZM118.836 147.605L120.438 147.566C120.438 148.986 120.281 150.294 119.969 151.492C119.656 152.69 119.168 153.732 118.504 154.617C117.853 155.49 117.026 156.173 116.023 156.668C115.021 157.15 113.836 157.391 112.469 157.391C111.427 157.391 110.477 157.247 109.617 156.961C108.758 156.661 108.016 156.199 107.391 155.574C106.779 154.936 106.303 154.122 105.965 153.133C105.626 152.13 105.457 150.926 105.457 149.52V135.867H110.613V149.559C110.613 150.262 110.691 150.848 110.848 151.316C111.017 151.785 111.245 152.169 111.531 152.469C111.831 152.755 112.176 152.964 112.566 153.094C112.97 153.211 113.4 153.27 113.855 153.27C115.105 153.27 116.089 153.022 116.805 152.527C117.534 152.02 118.055 151.342 118.367 150.496C118.68 149.637 118.836 148.673 118.836 147.605ZM132.996 140.379V157H127.84V135.867H132.684L132.996 140.379ZM132.176 145.672H130.652C130.665 144.135 130.874 142.742 131.277 141.492C131.681 140.242 132.247 139.168 132.977 138.27C133.719 137.371 134.598 136.681 135.613 136.199C136.629 135.717 137.762 135.477 139.012 135.477C140.027 135.477 140.945 135.62 141.766 135.906C142.586 136.193 143.289 136.648 143.875 137.273C144.474 137.898 144.93 138.719 145.242 139.734C145.568 140.737 145.73 141.974 145.73 143.445V157H140.535V143.406C140.535 142.443 140.392 141.681 140.105 141.121C139.832 140.561 139.428 140.164 138.895 139.93C138.374 139.695 137.729 139.578 136.961 139.578C136.167 139.578 135.47 139.741 134.871 140.066C134.285 140.379 133.79 140.815 133.387 141.375C132.996 141.935 132.697 142.579 132.488 143.309C132.28 144.038 132.176 144.826 132.176 145.672ZM160.281 135.867V139.578H148.172V135.867H160.281ZM151.414 130.672H156.59V150.906C156.59 151.531 156.674 152.013 156.844 152.352C157.013 152.69 157.267 152.918 157.605 153.035C157.944 153.152 158.348 153.211 158.816 153.211C159.155 153.211 159.467 153.191 159.754 153.152C160.04 153.113 160.281 153.074 160.477 153.035L160.496 156.902C160.066 157.046 159.578 157.163 159.031 157.254C158.497 157.345 157.892 157.391 157.215 157.391C156.056 157.391 155.04 157.195 154.168 156.805C153.296 156.401 152.618 155.757 152.137 154.871C151.655 153.973 151.414 152.788 151.414 151.316V130.672ZM173.211 157.391C171.609 157.391 170.171 157.13 168.895 156.609C167.618 156.089 166.531 155.366 165.633 154.441C164.747 153.504 164.064 152.417 163.582 151.18C163.113 149.93 162.879 148.589 162.879 147.156V146.375C162.879 144.747 163.113 143.27 163.582 141.941C164.051 140.6 164.715 139.448 165.574 138.484C166.434 137.521 167.462 136.779 168.66 136.258C169.858 135.737 171.18 135.477 172.625 135.477C174.122 135.477 175.444 135.73 176.59 136.238C177.736 136.733 178.693 137.436 179.461 138.348C180.229 139.259 180.809 140.353 181.199 141.629C181.59 142.892 181.785 144.292 181.785 145.828V147.996H165.223V144.441H176.707V144.051C176.681 143.23 176.525 142.482 176.238 141.805C175.952 141.115 175.509 140.568 174.91 140.164C174.311 139.747 173.536 139.539 172.586 139.539C171.818 139.539 171.147 139.708 170.574 140.047C170.014 140.372 169.546 140.841 169.168 141.453C168.803 142.052 168.53 142.768 168.348 143.602C168.165 144.435 168.074 145.359 168.074 146.375V147.156C168.074 148.042 168.191 148.862 168.426 149.617C168.673 150.372 169.031 151.03 169.5 151.59C169.982 152.137 170.555 152.566 171.219 152.879C171.896 153.178 172.664 153.328 173.523 153.328C174.604 153.328 175.581 153.12 176.453 152.703C177.339 152.273 178.107 151.642 178.758 150.809L181.355 153.504C180.913 154.155 180.314 154.78 179.559 155.379C178.816 155.978 177.918 156.466 176.863 156.844C175.809 157.208 174.591 157.391 173.211 157.391ZM194.734 157.391C193.133 157.391 191.694 157.13 190.418 156.609C189.142 156.089 188.055 155.366 187.156 154.441C186.271 153.504 185.587 152.417 185.105 151.18C184.637 149.93 184.402 148.589 184.402 147.156V146.375C184.402 144.747 184.637 143.27 185.105 141.941C185.574 140.6 186.238 139.448 187.098 138.484C187.957 137.521 188.986 136.779 190.184 136.258C191.382 135.737 192.703 135.477 194.148 135.477C195.646 135.477 196.967 135.73 198.113 136.238C199.259 136.733 200.216 137.436 200.984 138.348C201.753 139.259 202.332 140.353 202.723 141.629C203.113 142.892 203.309 144.292 203.309 145.828V147.996H186.746V144.441H198.23V144.051C198.204 143.23 198.048 142.482 197.762 141.805C197.475 141.115 197.033 140.568 196.434 140.164C195.835 139.747 195.06 139.539 194.109 139.539C193.341 139.539 192.671 139.708 192.098 140.047C191.538 140.372 191.069 140.841 190.691 141.453C190.327 142.052 190.053 142.768 189.871 143.602C189.689 144.435 189.598 145.359 189.598 146.375V147.156C189.598 148.042 189.715 148.862 189.949 149.617C190.197 150.372 190.555 151.03 191.023 151.59C191.505 152.137 192.078 152.566 192.742 152.879C193.419 153.178 194.188 153.328 195.047 153.328C196.128 153.328 197.104 153.12 197.977 152.703C198.862 152.273 199.63 151.642 200.281 150.809L202.879 153.504C202.436 154.155 201.837 154.78 201.082 155.379C200.34 155.978 199.441 156.466 198.387 156.844C197.332 157.208 196.115 157.391 194.734 157.391ZM211.922 140.184V157H206.766V135.867H211.648L211.922 140.184ZM218.348 135.73L218.27 140.535C217.983 140.483 217.658 140.444 217.293 140.418C216.941 140.392 216.609 140.379 216.297 140.379C215.503 140.379 214.806 140.49 214.207 140.711C213.608 140.919 213.107 141.225 212.703 141.629C212.312 142.033 212.013 142.527 211.805 143.113C211.596 143.686 211.479 144.337 211.453 145.066L210.34 144.93C210.34 143.589 210.477 142.345 210.75 141.199C211.023 140.053 211.421 139.051 211.941 138.191C212.462 137.332 213.113 136.668 213.895 136.199C214.689 135.717 215.6 135.477 216.629 135.477C216.915 135.477 217.221 135.503 217.547 135.555C217.885 135.594 218.152 135.652 218.348 135.73Z" fill="white"/>
<path d="M124.734 38.0938C124.734 36.4776 125.381 34.9276 126.534 33.7848C127.686 32.642 129.249 32 130.879 32C132.508 32 134.071 32.642 135.224 33.7848C136.376 34.9276 137.023 36.4776 137.023 38.0938C137.023 39.7099 136.376 41.2599 135.224 42.4027C134.071 43.5455 132.508 44.1875 130.879 44.1875C129.249 44.1875 127.686 43.5455 126.534 42.4027C125.381 41.2599 124.734 39.7099 124.734 38.0938ZM129.855 76.6875V92.9375C129.855 95.1846 128.024 97 125.758 97C123.492 97 121.662 95.1846 121.662 92.9375V64.6143L118 70.6572C116.835 72.5742 114.314 73.1963 112.38 72.041C110.447 70.8857 109.82 68.3848 110.985 66.4678L118.448 54.1533C120.676 50.4844 124.67 48.2373 128.984 48.2373H132.786C137.1 48.2373 141.094 50.4844 143.322 54.1533L150.785 66.4678C151.95 68.3848 151.323 70.8857 149.39 72.041C147.457 73.1963 144.935 72.5742 143.77 70.6572L140.096 64.6143V92.9375C140.096 95.1846 138.265 97 135.999 97C133.733 97 131.903 95.1846 131.903 92.9375V76.6875H129.855Z" fill="white"/>
</svg>
